<svg xmlns="http://www.w3.org/2000/svg" viewBox="0 0 520 60" width="520" height="60">
  <!-- Emblem -->
  <g transform="translate(0,0) scale(0.06)">
    <path fill="#e682e6" d="M0,0v250c21.67-.08,43.35,1.06,64.96,3.39C150.92,102.08,313.53,0,500,0c276.14,0,500,223.86,500,500V0H0Z"/>
    <path fill="#ffc800" d="M500,0C313.53,0,150.92,102.08,64.96,253.39c158.72,17.13,313.56,99.29,435.04,246.6,138.03,167.37,319.1,250.66,500.01,250v-249.99C1000,223.86,776.14,0,500,0Z"/>
    <path fill="#ffc800" d="M500,1000h500s-500.35,0-500.35,0c.12,0,.23,0,.35,0Z"/>
    <path fill="#00be5a" d="M1000,749.99c-180.9.66-361.97-82.64-500.01-250C361.97,332.64,180.9,249.34,0,250v750h1000v-250Z"/>
    <path fill="#32c8ff" d="M1500,500c-138.07-138.07-138.07-361.93,0-500h-500v1000h500c138.07-138.07,138.07-361.93,0-500Z"/>
    <path fill="#1482ff" d="M1500,0c-138.07,138.07-138.07,361.93,0,500,138.07,138.07,138.07,361.93,0,500h500V0h-500Z"/>
  </g>
  <!-- Text -->
  <text x="140" y="44" font-family="system-ui,-apple-system,sans-serif" font-size="46" font-weight="700" fill="#1a1a1a" letter-spacing="-0.5">Landseed</text>
</svg>
